<?xml version="1.0" encoding="UTF-8"?>
<svg width="100pt" height="100pt" version="1.1" viewBox="0 0 100 100" xmlns="http://www.w3.org/2000/svg">
 <path d="m22.289 24.18v39.047c0 0.32813 0.30078 0.62891 0.62891 0.62891h18.895v6.9258l-4.4102 0.039062c-0.32812 0-0.62891 0.30078-0.62891 0.62891v4.3672c0 0.32812 0.30078 0.62891 0.62891 0.62891h25.191c0.32812 0 0.62891-0.30078 0.62891-0.62891v-4.4297c0-0.32812-0.30078-0.62891-0.62891-0.62891l-4.4102 0.039063v-6.9453h18.895c0.32812 0 0.62891-0.30078 0.62891-0.62891v-39.047c0-0.32812-0.30078-0.62891-0.62891-0.62891h-54.16c-0.38672-0.007813-0.62891 0.28125-0.62891 0.62891zm1.2578 0.62891h52.898v33.379h-52.898zm3.7812 3.1484v25.82c0 0.32812 0.30078 0.62891 0.62891 0.62891h45.344v-1.2578h-4.4102v-1.8906h-1.2578v1.8906h-3.7773v-1.8906h-1.2578v1.8906h-3.7773v-1.8906h-1.2578v1.8906h-3.7773v-1.8906h-1.2578v1.8906h-3.7773v-1.8906h-1.2578v1.8906h-3.7773v-1.8906h-1.2578v1.8906h-3.7773v-1.8906h-1.2578v1.8906h-3.7773v-1.8906h-1.2578v1.8906h-3.7773v-3.7773h1.8906v-1.2578h-1.8906v-3.7773h1.8906v-1.2578h-1.8906v-3.7773h1.8906v-1.2578h-1.8906v-3.7773h1.8906v-1.2578h-1.8906v-5.0391zm16.375 5.0391c-1.7305 0.13281-2.7227 1.3867-3.4062 2.7148-0.75781 1.5-1.3242 3.4023-1.9883 5.2734-0.66406 1.8711-1.4297 3.6836-2.4609 5-1.0312 1.3125-2.2617 2.125-4.1133 2.125v1.2578c2.2422 0 3.9258-1.0781 5.1172-2.5977 1.1914-1.5195 1.9609-3.4648 2.6367-5.3711s1.25-3.7812 1.9297-5.1172c0.51172-1.1094 1.2578-1.7891 2.2812-2.0273 0.97266 0 1.8203 0.67578 2.7148 1.9102 0.89453 1.2305 1.7656 2.957 2.7148 4.7031 0.51562 0.94141 1.0547 1.9023 1.6523 2.793-0.41797 0.86328-0.875 1.6602-1.418 2.3203-1.0742 1.3125-2.3828 2.125-4.4102 2.125v1.2578c2.3828 0 4.1445-1.0586 5.3906-2.5781 0.48828-0.59766 0.90625-1.2656 1.2773-1.9688 0.26172 0.33203 0.53906 0.64844 0.82812 0.94531 1.3359 1.3789 3.0156 2.3438 5.0977 2.3438s3.7031-0.97656 4.9414-2.3633c0.60547-0.67578 1.1289-1.4492 1.6133-2.2617 0.51953 1.1914 1.1172 2.3438 1.9102 3.3047 1.2461 1.5195 3.0078 2.5781 5.3906 2.5781v-1.2578c-2.0234 0-3.332-0.8125-4.4102-2.125-0.85938-1.0469-1.5117-2.4297-2.1055-3.8984 0.21484-0.41406 0.42188-0.82422 0.62891-1.2383 0.87109-1.7383 1.6758-3.4453 2.6172-4.6641 0.94141-1.2188 1.9219-1.9297 3.2656-1.9297v-1.2578c-1.8047 0-3.1836 1.0391-4.25 2.4219-1.207 1.6875-2.0859 3.4844-2.8945 5.0781-0.63672-1.7188-1.2422-3.4414-2.0664-4.8203-0.90234-1.5117-2.1875-2.6758-4.0156-2.6758s-3.1133 1.168-4.0156 2.6758c-0.90234 1.5117-1.5391 3.418-2.2422 5.293-0.16406 0.44141-0.33594 0.88672-0.51172 1.3203-0.40625-0.65234-0.80078-1.332-1.1797-2.0273-0.9375-1.7188-1.8008-3.4766-2.793-4.8398-0.99219-1.3672-2.1914-2.4219-3.7383-2.4219zm14.484 1.2578c1.3242 0 2.1602 0.74219 2.9531 2.0664 1.0742 1.9844 1.6289 3.8516 2.3633 5.668-0.59375 1.0938-1.2305 2.1094-1.9492 2.9141-1.0859 1.2109-2.2969 1.9492-3.9961 1.9492-1.6953 0-3.0078-0.74609-4.1914-1.9688-0.39063-0.40234-0.76563-0.87109-1.1211-1.3594 0.30859-0.70313 0.59766-1.4141 0.86719-2.125 0.71484-1.9023 1.3359-3.7539 2.125-5.0781 0.78906-1.3242 1.6289-2.0664 2.9531-2.0664zm-15.113 29.598h13.855v7.5586h-13.855z" fill="#00abd6"/>
</svg>
